<?xml version="1.0" standalone="no"?>
<!DOCTYPE svg PUBLIC "-//W3C//DTD SVG 20010904//EN"
 "http://www.w3.org/TR/2001/REC-SVG-20010904/DTD/svg10.dtd">
<svg version="1.0" xmlns="http://www.w3.org/2000/svg"
 width="260.000000pt" height="260.000000pt" viewBox="0 0 260.000000 260.000000"
 preserveAspectRatio="xMidYMid meet">
<metadata>
Created by potrace 1.11, written by Peter Selinger 2001-2013
</metadata>
<g transform="translate(0.000000,260.000000) scale(0.100000,-0.100000)"
fill="#000000" stroke="none">
<path d="M1635 2584 c-100 -23 -135 -75 -136 -200 0 -44 3 -91 6 -106 3 -16 7
-40 9 -55 11 -80 22 -120 66 -255 138 -412 365 -728 526 -728 176 0 443 575
460 992 2 48 -2 101 -8 118 -35 103 -212 189 -443 216 -27 3 -61 8 -75 10 -35
7 -381 13 -405 8z"/>
<path d="M1069 2546 c-2 -3 -25 -7 -50 -10 -158 -19 -456 -96 -592 -152 -185
-76 -329 -170 -362 -234 -25 -49 -43 -147 -40 -218 4 -88 15 -194 21 -203 2
-4 6 -22 9 -40 12 -91 102 -392 150 -504 7 -16 34 -82 60 -145 27 -63 80 -178
120 -255 236 -461 494 -747 697 -772 183 -23 508 261 808 707 l61 90 -70 -6
c-63 -6 -76 -4 -124 20 -86 42 -194 162 -300 333 -50 82 -187 343 -187 357 0
3 -12 31 -26 63 -79 171 -180 489 -199 623 -21 147 -8 253 39 315 24 31 25 35
8 35 -10 0 -21 -2 -23 -4z"/>
</g>
</svg>
