<?xml version="1.0" encoding="utf-8"?>
<!-- Generator: Adobe Illustrator 19.2.1, SVG Export Plug-In . SVG Version: 6.00 Build 0)  -->
<svg version="1.1" id="Ebene_1" xmlns="http://www.w3.org/2000/svg" xmlns:xlink="http://www.w3.org/1999/xlink" x="0px" y="0px"
	 viewBox="0 0 167 75" style="enable-background:new 0 0 167 75;" xml:space="preserve">
<style type="text/css">
	.st0{fill:#FF8700;}
	.st1{font-family:'Share-Regular';}
	.st2{font-size:43px;}
	.st3{font-size:14px;}
</style>
<g>
	<path class="st0" d="M36.1,34.4c-0.6,0.2-1.1,0.2-1.7,0.2c-5,0-12.5-17.6-12.5-23.5c0-2.2,0.5-2.9,1.2-3.5c-6.2,0.7-13.6,3-16,5.9
		c-0.5,0.7-0.8,1.9-0.8,3.3c0,9.2,9.8,30,16.7,30C26.3,46.7,31.7,41.5,36.1,34.4"/>
	<path class="st0" d="M32.9,7c6.4,0,12.8,1,12.8,4.6c0,7.3-4.6,16.2-7,16.2c-4.2,0-9.5-11.7-9.5-17.6C29.2,7.5,30.2,7,32.9,7"/>
</g>
<text transform="matrix(1 0 0 1 56.0144 47.0909)" class="st1 st2">TYPO3</text>
<text transform="matrix(1 0 0 1 56.0144 67.0909)" class="st1 st3">Marketing Tasks</text>
</svg>
