<?xml version="1.0" encoding="utf-8"?>
<!-- Generator: Adobe Illustrator 19.2.1, SVG Export Plug-In . SVG Version: 6.00 Build 0)  -->
<svg version="1.1" id="Ebene_1" xmlns="http://www.w3.org/2000/svg" xmlns:xlink="http://www.w3.org/1999/xlink" x="0px" y="0px"
	 viewBox="0 0 1920 654.5" style="enable-background:new 0 0 1920 654.5;" xml:space="preserve">
<style type="text/css">
	.st0{fill:none;}
	.st1{fill:#FF8700;}
</style>
<g>
	<rect x="-1" y="-93.3" class="st0" width="1919.8" height="814.2"/>
	<g>
		<path class="st1" d="M507.4,390.2c-5.9,1.8-10.6,2.4-16.8,2.4c-50.7,0-125.2-177.2-125.2-236.2c0-21.7,5.1-29,12.4-35.2
			c-62.1,7.2-136.6,30-160.4,59c-5.1,7.3-8.3,18.6-8.3,33.1c0,92.1,98.3,301,167.6,301C408.8,514.4,462.9,461.6,507.4,390.2"/>
		<path class="st1" d="M475,115c64.1,0,128.3,10.3,128.3,46.5c0,73.5-46.6,162.5-70.4,162.5c-42.4,0-95.2-118-95.2-177
			C437.8,120.2,448.1,115,475,115"/>
	</g>
	<g>
		<path d="M818.4,245.2v269.7h-37.6V245.2h-66.6v-32.9h170.7v32.9L818.4,245.2L818.4,245.2z"/>
		<path d="M1016.3,374.4v140.5h-38.9V374.4l-77.4-162.1h41.5l57.1,125.8l57.1-125.8h39.3L1016.3,374.4z"/>
		<path d="M1214.3,400.8H1178v114.1h-37.6V212.3c0,0,37.2-3,73-3c65.7,0,84.7,40.6,84.7,93.8
			C1298.1,368.8,1275.7,400.8,1214.3,400.8z M1218.6,240.4c-23.8,0-40.6,2.6-40.6,2.6v126.2h40.6c24.2,0,41.1-16,41.1-63.1
			C1259.7,262.9,1249.3,240.4,1218.6,240.4z"/>
		<path d="M1438.2,517.9c-71.3,0-90.3-51.9-90.3-157.7c0-101.6,19-150.8,90.3-150.8c71.3,0,90.3,49.3,90.3,150.8
			C1528.5,466,1509.5,517.9,1438.2,517.9z M1438.2,240.9c-38.9,0-51.9,26.4-51.9,121.4c0,92.9,13,124,51.9,124
			c38.9,0,51.9-31.1,51.9-124C1490,267.2,1477.1,240.9,1438.2,240.9z"/>
		<path d="M1644.8,517.9c-21.2,0-52.7-6.5-56.6-7.3v-32.4c10.4,2.2,37.2,6.9,56.2,6.9c22,0,36.3-18.2,36.3-51.4
			c0-40.2-6.5-60.1-37.2-60.1H1608V342h31.1c35,0,36.7-35.9,36.7-53.1c0-34.1-10.8-48-32.4-48c-19,0-40.6,4.8-53.2,7.3v-31.6
			c4.8-0.9,30.3-7.3,52.3-7.3c44.5,0,70,19,70,83.4c0,29.4-9.1,55.3-32.8,62.7c28.1,3.9,38,31.6,38,73.9
			C1717.8,493.7,1692.7,517.9,1644.8,517.9z"/>
	</g>
</g>
</svg>
