<?xml version="1.0" encoding="utf-8"?>
<!-- Generator: Adobe Illustrator 19.2.1, SVG Export Plug-In . SVG Version: 6.00 Build 0)  -->
<svg version="1.1" id="Layer_1" xmlns="http://www.w3.org/2000/svg" xmlns:xlink="http://www.w3.org/1999/xlink" x="0px" y="0px"
	 viewBox="0 0 79.8 79.8" style="enable-background:new 0 0 79.8 79.8;" xml:space="preserve">
<style type="text/css">
	.st0{clip-path:url(#SVGID_2_);fill:#1D1D1B;}
	.st1{clip-path:url(#SVGID_2_);}
	.st2{clip-path:url(#SVGID_2_);fill:#FFFFFF;}
</style>
<g>
	<defs>
		<rect id="SVGID_1_" width="79.8" height="79.8"/>
	</defs>
	<clipPath id="SVGID_2_">
		<use xlink:href="#SVGID_1_"  style="overflow:visible;"/>
	</clipPath>
	<path class="st0" d="M29.7,0.1L11.9,5.5c-1,0.3-1.5,1.3-1.2,2.3l4.2,13.5c0.3,1,1.3,1.5,2.3,1.2L35,17.2c1-0.3,1.5-1.3,1.2-2.3
		L32.1,1.3C31.8,0.3,30.7-0.2,29.7,0.1 M34.8,15.3c0.1,0.2-0.1,0.4-0.2,0.5l-17.8,5.5c-0.2,0.1-0.4-0.1-0.5-0.2L12.1,7.4
		C12.1,7.2,12.2,7,12.4,7l17.8-5.5c0.2-0.1,0.4,0.1,0.5,0.2L34.8,15.3z"/>
	<path class="st0" d="M17.8,11.5c-1.5,0.9-3.3-0.1-3.4-1.8c0-0.8,0.4-1.6,1.1-2c1.5-0.9,3.3,0.1,3.4,1.8C19,10.2,18.5,11,17.8,11.5"
		/>
	<polygon class="st0" points="33,14.7 17.4,19.5 16.7,17.3 19.2,12.7 21.5,13.9 25.5,6.5 31.5,9.7 	"/>
	<path class="st0" d="M79.1,37.5l-11.4-4.7c-0.6-0.3-1.3,0-1.6,0.7L62.5,42c-0.3,0.6,0,1.4,0.7,1.6l11.4,4.7c0.6,0.3,1.4,0,1.6-0.7
		l3.6-8.6C80,38.5,79.7,37.7,79.1,37.5 M75.2,47.4c0,0.1-0.2,0.2-0.3,0.1l-11.4-4.7c-0.1,0-0.2-0.2-0.1-0.3l3.6-8.6
		c0.1-0.1,0.2-0.2,0.3-0.1l11.4,4.7c0.1,0,0.2,0.2,0.1,0.3L75.2,47.4z"/>
	<path class="st0" d="M67.9,38.1c-0.8-0.3-1.1-1.2-0.8-1.9c0.3-0.8,1.2-1.1,1.9-0.8c0.8,0.3,1.1,1.2,0.8,1.9
		C69.5,38.1,68.6,38.5,67.9,38.1"/>
	<polygon class="st0" points="74.6,46.3 64.6,42.1 65.2,40.8 68.4,39.4 69.1,41 74.2,38.9 75.9,43.1 	"/>
	<path class="st0" d="M68.3,8.6c0,0.3-0.3,0.7-0.6,0.6c-0.1,0-0.3-0.1-0.4-0.1c-0.1,0-0.2,0.1-0.3,0.2c-0.1,0.1-0.1,0.3-0.1,0.5
		l-1.6,8.9c0,0.3-0.3,0.4-0.6,0.4l-0.8-0.2c-0.3,0-0.4-0.3-0.4-0.6L65.2,9l-1.1-0.2l-1.7,9.4c0,0.3-0.3,0.4-0.6,0.4L61,18.4
		c-0.3,0-0.4-0.3-0.4-0.6l0.7-3.8c-0.7-0.2-1.3-0.5-1.8-0.8c-0.6-0.4-1-1-1.2-1.6c-0.2-0.7-0.3-1.4-0.1-2.1c0.2-0.9,0.5-1.5,1.1-2.1
		c0.6-0.5,1.2-0.8,1.8-0.9c0.6-0.1,1.8,0,3.3,0.3L68,7.5c0.3,0,0.4,0.3,0.4,0.6L68.3,8.6z"/>
	<path class="st0" d="M15,29.6c0,0.3-0.2,0.5-0.4,0.5l-9,0.9c-0.3,0-0.5-0.2-0.5-0.4l-0.1-1c0-0.3,0.2-0.5,0.4-0.5l9-0.9
		c0.3,0,0.5,0.2,0.5,0.4L15,29.6z"/>
	<path class="st0" d="M18.3,32.2c0,0.3-0.2,0.5-0.4,0.5L5.9,34c-0.3,0-0.5-0.2-0.5-0.4l-0.1-1c0-0.3,0.2-0.5,0.4-0.5l11.9-1.2
		c0.3,0,0.5,0.2,0.5,0.4L18.3,32.2z"/>
	<path class="st0" d="M16.6,35.4c0,0.3-0.2,0.5-0.4,0.5l-9.9,1c-0.3,0-0.5-0.2-0.5-0.4l-0.1-1C5.6,35.3,5.8,35,6,35l9.9-1
		c0.3,0,0.5,0.2,0.5,0.4L16.6,35.4z"/>
	<path class="st0" d="M19.9,38.1c0,0.3-0.2,0.5-0.4,0.5L6.6,40C6.3,40,6,39.8,6,39.5l-0.1-1c0-0.3,0.2-0.5,0.4-0.5l12.9-1.3
		c0.3,0,0.5,0.2,0.5,0.4L19.9,38.1z"/>
	<path class="st1" d="M12.8,16.8c0,0.1-0.2,0.2-0.3,0.2l-5-1.6l3-9.5l1.2,0.4l3.5-1.2L5,1.8C4.3,1.6,3.5,2,3.3,2.7L0.1,12.8
		c-0.2,0.7,0.2,1.5,0.9,1.7l11.1,3.5c0.7,0.2,1.5-0.2,1.7-0.9l0.7-2.2l-0.6-1.8L12.8,16.8z M1.3,13.5c-0.1,0-0.2-0.2-0.2-0.3l3-9.3
		l5.3,1.7l-3,9.5L1.3,13.5z"/>
	<path class="st0" d="M15.2,61.8c0.1,0,1.5-0.2,1.6-0.3c0.7-0.1,1.3-0.3,2-0.4c0.6-0.1,1.1-0.2,1.7-0.3l2.2-0.4
		c0.3-0.1,0.5,0,0.6-0.4l0.3-0.1c0.1,0,0.1,0,0.2,0c0.2,0.9,0.3,1.7,0.5,2.6c0.1,0.3,0.1,0.6,0.1,0.8c-0.2,0.1-0.3,0.2-0.5,0.2
		c-0.2-0.3-0.4-0.6-0.6-0.9c-0.1-0.1-0.5-1.1-0.5-1.2c-0.2-0.2-0.4-0.1-0.6-0.1c-0.7,0.1-1.4,0.2-2.1,0.4c0,0.3,0.1,0.7,0.1,1.1
		c0.4,2.2,0.8,4.3,1.2,6.5c0.1,0.6,0.1,1.2,0.4,1.8c0.6,0.2,1.3,0.1,2,0.3c0,0.1,0.1,0.2,0.1,0.4c0,0.1,0,0.1,0,0.2l-0.3,0.1
		c-1.1,0.2-2.2,0.3-3.3,0.5c-0.8,0.1-1.5,0.4-2.3,0.6c0-0.1-0.1-0.3-0.1-0.4l0-0.1c0.2-0.5,1.3-0.7,1.7-1.1c0.1-0.4-0.3-2.5-0.4-3
		c-0.3-1.6-0.6-3.1-0.9-4.6l-0.2-0.9c0-0.1-0.1-0.7-0.2-0.8c-0.1-0.1-1.1,0.1-1.3,0.1c-0.3,0.1-1.1,0.3-1.3,0.5
		c-0.3,0.3,0,1.9-0.5,2c-0.2-0.1-0.4-0.1-0.5-0.3l-0.5-2.9l0.6-0.1L15.2,61.8z"/>
	<path class="st2" d="M65,62.1H24.4V14.6h12.3C52.4,14.6,65,27.3,65,42.9V62.1z"/>
	<path class="st0" d="M64.5,23.9L55.7,15c-1.1-1.1-3.2-1.9-4.7-1.9H25.5c-1.5,0-2.7,1.2-2.7,2.7v45.6c0,1.5,1.2,2.7,2.7,2.7h38.3
		c1.5,0,2.7-1.2,2.7-2.7V28.6C66.5,27.1,65.6,25,64.5,23.9 M51.9,17c0.5,0.2,1,0.4,1.2,0.6l8.9,8.9c0.2,0.2,0.5,0.7,0.6,1.2H51.9V17
		z M62.8,60.5H26.4V16.7h21.9v11.8c0,1.5,1.2,2.7,2.7,2.7h11.8V60.5z"/>
	<path class="st0" d="M59,46.4c-0.7-1.2-3.1-1.4-5-1.4c-1,0-2.1,0.1-3.3,0.2c-0.9-0.5-1.7-1-2.4-1.6c-1.7-1.4-3.2-3.8-4.2-6.8
		c0.3-2,0.4-3.7,0.4-5.5v-0.9c0-0.1,0-0.1,0-0.2c0.1-0.1,0.1-0.1,0.1-0.2c0.2-0.9,0.1-1.5-0.3-1.9c-0.2-0.3-0.6-0.4-1-0.4h0h-0.6
		c-0.6,0-1,0.4-1.2,1.1c-0.5,1.9-0.2,5.1,0.7,8.2c-0.7,2.4-1.7,4.9-3,7.5c-1.1,2.3-2.2,4.2-3,5.6c0,0,0-0.1-0.1-0.1
		c-0.1-0.2-0.4-0.3-0.7-0.2c-3.5,1.9-5.1,4-5.4,5.4c-0.1,0.6,0,0.9,0.2,1c0.1,0.1,0.1,0.1,0.2,0.1l0.7,0.3c0.3,0.1,0.5,0.2,0.8,0.2
		c1.7,0,4-2.4,6.9-7.5c3-1.1,7.2-1.9,11.2-2.4c2.4,1.3,5.2,2.1,7,2.1c1.5,0,1.9-0.6,2-1.1v0c0,0,0.1-0.1,0.1-0.1
		C59.3,47.2,59.2,46.7,59,46.4 M31.8,55.3c0.4-1,1.8-2.8,3.9-4.5C33.9,53.7,32.7,54.9,31.8,55.3 M39.6,47.9c0.4-0.8,0.9-1.6,1.3-2.4
		c1-2,1.8-3.9,2.4-5.6c1,2.1,2.2,3.8,3.6,5c0.3,0.2,0.5,0.4,0.8,0.7C44.9,46.1,42.1,46.9,39.6,47.9 M57.5,47.6
		c-0.9,0-2.1-0.3-3.5-0.8c3.1,0,3.8,0.5,4,0.7c0,0,0.1,0.1,0.1,0.1C57.9,47.6,57.8,47.6,57.5,47.6"/>
	<path class="st0" d="M78.5,65.3l-0.2-3l-3,0.2l0.1,1l-3,0.2l-0.1-1l1-0.1l-0.2-3l-3,0.2l0.1,1l-7,0.6l-0.1-1l-3,0.2l0.2,3l1-0.1
		l0.4,5l-1,0.1l0.2,3l3-0.2l-0.1-1l3-0.2l0.1,1l-1,0.1l0.2,3l3-0.2l-0.1-1l7-0.6l0.1,1l3-0.2l-0.2-3l-1,0.1l-0.4-5L78.5,65.3z
		 M63.8,69.6l-0.1-1l-1,0.1l-0.4-5l1-0.1l-0.1-1l7-0.6l0.1,1l1-0.1l0.4,5l-1,0.1l0.1,1L63.8,69.6z M77,70.5l-1,0.1l0.1,1l-7,0.6
		l-0.1-1l-1,0.1l-0.1-1l3-0.2l0.1,1l3-0.2l-0.2-3l-1,0.1l-0.2-3l3-0.2l0.1,1l1-0.1L77,70.5z"/>
	<path class="st0" d="M17.6,66.8H5.1c-0.7,0-1.2,0.6-1.2,1.2v10.5c0,0.7,0.6,1.2,1.2,1.2h12.5c0.7,0,1.2-0.6,1.2-1.2V68.1
		C18.9,67.4,18.3,66.8,17.6,66.8 M6.9,78.3c0,0.3-0.2,0.5-0.5,0.5h-1c-0.3,0-0.5-0.2-0.5-0.5v-1c0-0.3,0.2-0.5,0.5-0.5h1
		c0.3,0,0.5,0.2,0.5,0.5V78.3z M6.9,75.3c0,0.3-0.2,0.5-0.5,0.5h-1c-0.3,0-0.5-0.2-0.5-0.5v-1c0-0.3,0.2-0.5,0.5-0.5h1
		c0.3,0,0.5,0.2,0.5,0.5V75.3z M6.9,72.3c0,0.3-0.2,0.5-0.5,0.5h-1c-0.3,0-0.5-0.2-0.5-0.5v-1c0-0.3,0.2-0.5,0.5-0.5h1
		c0.3,0,0.5,0.2,0.5,0.5V72.3z M6.9,69.3c0,0.3-0.2,0.5-0.5,0.5h-1c-0.3,0-0.5-0.2-0.5-0.5v-1c0-0.3,0.2-0.5,0.5-0.5h1
		c0.3,0,0.5,0.2,0.5,0.5V69.3z M14.9,78.3c0,0.3-0.2,0.5-0.5,0.5h-6c-0.3,0-0.5-0.2-0.5-0.5v-4c0-0.3,0.2-0.5,0.5-0.5h6
		c0.3,0,0.5,0.2,0.5,0.5V78.3z M14.9,72.3c0,0.3-0.2,0.5-0.5,0.5h-6c-0.3,0-0.5-0.2-0.5-0.5v-4c0-0.3,0.2-0.5,0.5-0.5h6
		c0.3,0,0.5,0.2,0.5,0.5V72.3z M17.9,78.3c0,0.3-0.2,0.5-0.5,0.5h-1c-0.3,0-0.5-0.2-0.5-0.5v-1c0-0.3,0.2-0.5,0.5-0.5h1
		c0.3,0,0.5,0.2,0.5,0.5V78.3z M17.9,75.3c0,0.3-0.2,0.5-0.5,0.5h-1c-0.3,0-0.5-0.2-0.5-0.5v-1c0-0.3,0.2-0.5,0.5-0.5h1
		c0.3,0,0.5,0.2,0.5,0.5V75.3z M17.9,72.3c0,0.3-0.2,0.5-0.5,0.5h-1c-0.3,0-0.5-0.2-0.5-0.5v-1c0-0.3,0.2-0.5,0.5-0.5h1
		c0.3,0,0.5,0.2,0.5,0.5V72.3z M17.9,69.3c0,0.3-0.2,0.5-0.5,0.5h-1c-0.3,0-0.5-0.2-0.5-0.5v-1c0-0.3,0.2-0.5,0.5-0.5h1
		c0.3,0,0.5,0.2,0.5,0.5V69.3z"/>
</g>
</svg>
