<?xml version="1.0" encoding="utf-8"?>
<!-- Generator: Adobe Illustrator 19.2.1, SVG Export Plug-In . SVG Version: 6.00 Build 0)  -->
<svg version="1.1" id="Layer_1" xmlns="http://www.w3.org/2000/svg" xmlns:xlink="http://www.w3.org/1999/xlink" x="0px" y="0px"
	 viewBox="0 0 84.9 56.5" style="enable-background:new 0 0 84.9 56.5;" xml:space="preserve">
<style type="text/css">
	.st0{clip-path:url(#SVGID_2_);fill:#1D1D1B;}
	.st1{clip-path:url(#SVGID_2_);fill:#FFFFFF;}
	.st2{clip-path:url(#SVGID_2_);}
</style>
<g>
	<defs>
		<rect id="SVGID_1_" y="0" width="84.9" height="56.5"/>
	</defs>
	<clipPath id="SVGID_2_">
		<use xlink:href="#SVGID_1_"  style="overflow:visible;"/>
	</clipPath>
	<path class="st0" d="M33.2,9.5l-11-0.2c-0.6,0-1.1,0.5-1.1,1.1l-0.1,8.4c0,0.6,0.5,1.1,1.1,1.1l11,0.2c0.6,0,1.1-0.5,1.1-1.1
		l0.1-8.4C34.3,10,33.8,9.5,33.2,9.5 M33.3,19c0,0.1-0.1,0.2-0.2,0.2L22,19c-0.1,0-0.2-0.1-0.2-0.2l0.1-8.4c0-0.1,0.1-0.2,0.2-0.2
		l11,0.2c0.1,0,0.2,0.1,0.2,0.2L33.3,19z"/>
	<path class="st0" d="M24.1,13.7c-0.7,0-1.3-0.6-1.3-1.3c0-0.7,0.6-1.3,1.3-1.3c0.7,0,1.3,0.6,1.3,1.3
		C25.4,13.2,24.8,13.8,24.1,13.7"/>
	<polygon class="st0" points="32.4,18.3 22.7,18.1 22.7,16.8 25,14.6 26.1,15.8 29.7,12.3 32.5,15.2 	"/>
	<path class="st0" d="M45.8,25.5c0,0.2-0.2,0.6-0.4,0.6c-0.1,0-0.2,0-0.3,0c-0.1,0-0.2,0.1-0.2,0.2c0,0.1,0,0.3,0,0.4l0,6.9
		c0,0.2-0.2,0.4-0.4,0.4l-0.7,0c-0.2,0-0.4-0.2-0.4-0.4l0-7.3l-0.9,0l0,7.3c0,0.2-0.2,0.4-0.4,0.4l-0.6,0c-0.2,0-0.4-0.2-0.4-0.4
		l0-3c-0.6,0-1.1-0.2-1.5-0.4c-0.5-0.2-0.9-0.6-1.2-1.1c-0.3-0.5-0.4-1-0.4-1.6c0-0.7,0.2-1.2,0.5-1.7c0.4-0.5,0.8-0.8,1.3-1
		c0.5-0.2,1.4-0.2,2.5-0.2l2.9,0c0.2,0,0.4,0.2,0.4,0.4L45.8,25.5z"/>
	<path class="st0" d="M46.2,10.9c0,0.2-0.2,0.4-0.4,0.4l-7.8,0c-0.2,0-0.4-0.2-0.4-0.4l0-0.9c0-0.2,0.2-0.4,0.4-0.4l7.8,0
		c0.2,0,0.4,0.2,0.4,0.4L46.2,10.9z"/>
	<path class="st0" d="M48.8,13.6c0,0.2-0.2,0.4-0.4,0.4l-10.4,0c-0.2,0-0.4-0.2-0.4-0.4l0-0.9c0-0.2,0.2-0.4,0.4-0.4l10.4,0
		c0.2,0,0.4,0.2,0.4,0.4L48.8,13.6z"/>
	<path class="st0" d="M47,16.2c0,0.2-0.2,0.4-0.4,0.4l-8.7,0c-0.2,0-0.4-0.2-0.4-0.4l0-0.9c0-0.2,0.2-0.4,0.4-0.4l8.7,0
		c0.2,0,0.4,0.2,0.4,0.4L47,16.2z"/>
	<path class="st0" d="M49.6,18.8c0,0.2-0.2,0.4-0.4,0.4l-11.3,0c-0.2,0-0.4-0.2-0.4-0.4l0-0.9c0-0.2,0.2-0.4,0.4-0.4l11.3,0
		c0.2,0,0.4,0.2,0.4,0.4L49.6,18.8z"/>
	<path class="st1" d="M30,34.1l-7.6,0l0-8.9c4.2,0,7.6,3.4,7.6,7.6L30,34.1z"/>
	<path class="st0" d="M29.9,26.9l-1.7-1.7c-0.2-0.2-0.6-0.4-0.9-0.4l-4.8,0c-0.3,0-0.5,0.2-0.5,0.5l0,8.6c0,0.3,0.2,0.5,0.5,0.5
		l7.2,0c0.3,0,0.5-0.2,0.5-0.5l0-6.2C30.2,27.5,30.1,27.1,29.9,26.9 M27.5,25.6c0.1,0,0.2,0.1,0.2,0.1l1.7,1.7c0,0,0.1,0.1,0.1,0.2
		l-2,0L27.5,25.6z M29.5,33.8l-6.9,0l0-8.2l4.1,0l0,2.2c0,0.3,0.2,0.5,0.5,0.5l2.2,0L29.5,33.8z"/>
	<path class="st0" d="M28.8,31.2c-0.1-0.2-0.6-0.3-0.9-0.3c-0.2,0-0.4,0-0.6,0c-0.2-0.1-0.3-0.2-0.4-0.3c-0.3-0.3-0.6-0.7-0.8-1.3
		c0.1-0.4,0.1-0.7,0.1-1c0-0.1,0-0.1,0-0.2c0,0,0,0,0,0c0,0,0,0,0,0c0-0.2,0-0.3,0-0.4c0-0.1-0.1-0.1-0.2-0.1h0l-0.1,0
		c-0.1,0-0.2,0.1-0.2,0.2c-0.1,0.4,0,1,0.1,1.5c-0.1,0.5-0.3,0.9-0.6,1.4c-0.2,0.4-0.4,0.8-0.6,1.1c0,0,0,0,0,0c0,0-0.1-0.1-0.1,0
		c-0.7,0.3-1,0.8-1,1c0,0.1,0,0.2,0,0.2c0,0,0,0,0,0l0.1,0.1c0,0,0.1,0,0.2,0c0.3,0,0.7-0.5,1.3-1.4c0.6-0.2,1.4-0.4,2.1-0.4
		c0.4,0.2,1,0.4,1.3,0.4c0.3,0,0.4-0.1,0.4-0.2v0c0,0,0,0,0,0C28.9,31.3,28.8,31.2,28.8,31.2 M23.7,32.9c0.1-0.2,0.3-0.5,0.7-0.8
		C24.1,32.5,23.9,32.8,23.7,32.9 M25.2,31.5c0.1-0.1,0.2-0.3,0.2-0.4c0.2-0.4,0.3-0.7,0.4-1.1c0.2,0.4,0.4,0.7,0.7,0.9
		c0,0,0.1,0.1,0.2,0.1C26.2,31.1,25.6,31.3,25.2,31.5 M28.5,31.4c-0.2,0-0.4-0.1-0.7-0.1C28.5,31.2,28.6,31.3,28.5,31.4
		C28.6,31.4,28.6,31.4,28.5,31.4C28.6,31.4,28.6,31.4,28.5,31.4"/>
	<path class="st0" d="M63.5,13.7l0-1.8l-1.8,0v0.6h-1.8l0-0.6h0.6v-1.8h-1.8l0,0.6l-4.2,0v-0.6l-1.8,0l0,1.8h0.6l0,3h-0.6v1.8l1.8,0
		l0-0.6h1.8v0.6h-0.6l0,1.8h1.8v-0.6l4.2,0v0.6l1.8,0v-1.8h-0.6l0-3H63.5z M54.5,15.5v-0.6h-0.6v-3h0.6v-0.6l4.2,0v0.6l0.6,0l0,3
		l-0.6,0v0.6L54.5,15.5z M62.3,16.7h-0.6v0.6l-4.2,0v-0.6h-0.6v-0.6l1.8,0v0.6l1.8,0l0-1.8h-0.6v-1.8l1.8,0v0.6h0.6L62.3,16.7z"/>
	<path class="st0" d="M63,24.5l-10.3,0.1c-0.6,0-1,0.5-1,1l0,8.6c0,0.6,0.5,1,1,1L63,35.2c0.6,0,1-0.5,1-1l0-8.6
		C64,25,63.6,24.5,63,24.5 M54.2,34c0,0.2-0.2,0.4-0.4,0.4l-0.8,0c-0.2,0-0.4-0.2-0.4-0.4l0-0.8c0-0.2,0.2-0.4,0.4-0.4l0.8,0
		c0.2,0,0.4,0.2,0.4,0.4L54.2,34z M54.2,31.5c0,0.2-0.2,0.4-0.4,0.4l-0.8,0c-0.2,0-0.4-0.2-0.4-0.4l0-0.8c0-0.2,0.2-0.4,0.4-0.4
		l0.8,0c0.2,0,0.4,0.2,0.4,0.4L54.2,31.5z M54.2,29.1c0,0.2-0.2,0.4-0.4,0.4l-0.8,0c-0.2,0-0.4-0.2-0.4-0.4l0-0.8
		c0-0.2,0.2-0.4,0.4-0.4l0.8,0c0.2,0,0.4,0.2,0.4,0.4L54.2,29.1z M54.2,26.6c0,0.2-0.2,0.4-0.4,0.4l-0.8,0c-0.2,0-0.4-0.2-0.4-0.4
		l0-0.8c0-0.2,0.2-0.4,0.4-0.4l0.8,0c0.2,0,0.4,0.2,0.4,0.4L54.2,26.6z M60.8,34c0,0.2-0.2,0.4-0.4,0.4l-4.9,0
		c-0.2,0-0.4-0.2-0.4-0.4l0-3.3c0-0.2,0.2-0.4,0.4-0.4l4.9,0c0.2,0,0.4,0.2,0.4,0.4L60.8,34z M60.8,29c0,0.2-0.2,0.4-0.4,0.4l-4.9,0
		c-0.2,0-0.4-0.2-0.4-0.4l0-3.3c0-0.2,0.2-0.4,0.4-0.4l4.9,0c0.2,0,0.4,0.2,0.4,0.4L60.8,29z M63.2,33.9c0,0.2-0.2,0.4-0.4,0.4
		l-0.8,0c-0.2,0-0.4-0.2-0.4-0.4l0-0.8c0-0.2,0.2-0.4,0.4-0.4l0.8,0c0.2,0,0.4,0.2,0.4,0.4L63.2,33.9z M63.2,31.5
		c0,0.2-0.2,0.4-0.4,0.4l-0.8,0c-0.2,0-0.4-0.2-0.4-0.4l0-0.8c0-0.2,0.2-0.4,0.4-0.4l0.8,0c0.2,0,0.4,0.2,0.4,0.4L63.2,31.5z
		 M63.2,29c0,0.2-0.2,0.4-0.4,0.4l-0.8,0c-0.2,0-0.4-0.2-0.4-0.4l0-0.8c0-0.2,0.2-0.4,0.4-0.4l0.8,0c0.2,0,0.4,0.2,0.4,0.4L63.2,29z
		 M63.2,26.6c0,0.2-0.2,0.4-0.4,0.4L62,27c-0.2,0-0.4-0.2-0.4-0.4l0-0.8c0-0.2,0.2-0.4,0.4-0.4l0.8,0c0.2,0,0.4,0.2,0.4,0.4
		L63.2,26.6z"/>
	<path class="st2" d="M18.4,45.2h48c2,0,3.6-0.7,5-2.1c1.4-1.4,2.1-3,2.1-5V7c0-2-0.7-3.6-2.1-5c-1.4-1.4-3-2-5-2h-48
		c-2,0-3.6,0.7-5,2.1c-1.4,1.4-2.1,3-2.1,5v31.1c0,2,0.7,3.6,2.1,5C14.8,44.5,16.4,45.2,18.4,45.2 M16.9,7c0-0.4,0.1-0.7,0.4-1
		s0.6-0.4,1-0.4h48c0.4,0,0.7,0.1,1,0.4c0.3,0.3,0.4,0.6,0.4,1v31.1c0,0.4-0.1,0.7-0.4,1c-0.3,0.3-0.6,0.4-1,0.4h-48
		c-0.4,0-0.7-0.1-1-0.4c-0.3-0.3-0.4-0.6-0.4-1V7z"/>
	<path class="st2" d="M77.7,48H0v4.3c0,1.2,0.7,2.2,2.1,3c1.4,0.8,3,1.2,5,1.2h70.7c2,0,3.6-0.4,5-1.2c1.4-0.8,2.1-1.8,2.1-3V48
		H77.7z M45.9,52.3h-7c-0.5,0-0.7-0.3-0.7-0.7c0-0.5,0.2-0.7,0.7-0.7h7c0.5,0,0.7,0.3,0.7,0.7C46.6,52,46.4,52.3,45.9,52.3"/>
</g>
</svg>
