<?xml version="1.0" encoding="utf-8"?>
<!-- Generator: Adobe Illustrator 19.2.1, SVG Export Plug-In . SVG Version: 6.00 Build 0)  -->
<svg version="1.1" id="Layer_1" xmlns="http://www.w3.org/2000/svg" xmlns:xlink="http://www.w3.org/1999/xlink" x="0px" y="0px"
	 viewBox="0 0 43.7 51" style="enable-background:new 0 0 43.7 51;" xml:space="preserve">
<style type="text/css">
	.st0{clip-path:url(#SVGID_2_);fill:#FFFFFF;}
	.st1{clip-path:url(#SVGID_2_);fill:#1D1D1B;}
</style>
<g>
	<defs>
		<rect id="SVGID_1_" y="0" width="43.7" height="51"/>
	</defs>
	<clipPath id="SVGID_2_">
		<use xlink:href="#SVGID_1_"  style="overflow:visible;"/>
	</clipPath>
	<path class="st0" d="M42.3,49.1H1.7V1.6H14c15.6,0,28.3,12.6,28.3,28.3V49.1z"/>
	<path class="st1" d="M41.8,10.8l-8.9-8.9C31.9,0.9,29.8,0,28.2,0H2.7C1.2,0,0,1.2,0,2.7v45.6C0,49.8,1.2,51,2.7,51H41
		c1.5,0,2.7-1.2,2.7-2.7V15.5C43.7,14,42.9,11.9,41.8,10.8 M29.2,3.9c0.5,0.2,1,0.4,1.2,0.6l8.9,8.9c0.2,0.2,0.5,0.7,0.6,1.2H29.2
		V3.9z M40.1,47.4H3.6V3.6h21.9v11.8c0,1.5,1.2,2.7,2.7,2.7h11.8V47.4z"/>
	<path class="st1" d="M9.5,29.1c0.6,0,1.1,0.5,1.1,1.1c0,0.6-0.5,1.1-1.1,1.1c-0.6,0-1.1-0.5-1.1-1.1C8.4,29.6,8.8,29.1,9.5,29.1"/>
	<path class="st1" d="M11.9,23.5c0-0.5,0.4-0.9,1-0.9c0.6,0,1,0.4,1,0.9c0,0.5-0.4,0.9-1,0.9C12.3,24.4,11.9,24,11.9,23.5 M12,25.3
		h1.8v5.9H12V25.3z"/>
	<path class="st1" d="M15.3,25.3h1.4l0.1,0.8h0c0.5-0.5,1.1-0.9,1.9-0.9c1.3,0,1.8,0.9,1.8,2.4v3.7h-1.8v-3.5c0-0.9-0.2-1.1-0.7-1.1
		c-0.4,0-0.7,0.2-1.1,0.6v4h-1.8V25.3z"/>
	<path class="st1" d="M24.4,25.1c0.7,0,1.1,0.2,1.5,0.6l-0.1-0.9v-2h1.8v8.4h-1.4L26,30.6h0c-0.4,0.4-1,0.7-1.6,0.7
		c-1.5,0-2.4-1.2-2.4-3.1C21.9,26.3,23.1,25.1,24.4,25.1 M24.8,29.9c0.4,0,0.7-0.1,1-0.5v-2.4c-0.3-0.3-0.7-0.4-1-0.4
		c-0.6,0-1.1,0.5-1.1,1.7C23.7,29.4,24.1,29.9,24.8,29.9"/>
	<path class="st1" d="M31.2,25.1c0.7,0,1.1,0.2,1.5,0.6l-0.1-0.9v-2h1.8v8.4H33l-0.1-0.6h0c-0.4,0.4-1,0.7-1.6,0.7
		c-1.5,0-2.4-1.2-2.4-3.1C28.8,26.3,30,25.1,31.2,25.1 M31.7,29.9c0.4,0,0.7-0.1,1-0.5v-2.4c-0.3-0.3-0.7-0.4-1-0.4
		c-0.6,0-1.1,0.5-1.1,1.7C30.6,29.4,31,29.9,31.7,29.9"/>
</g>
</svg>
