<?xml version="1.0" encoding="utf-8"?>
<!-- Generator: Adobe Illustrator 19.2.1, SVG Export Plug-In . SVG Version: 6.00 Build 0)  -->
<svg version="1.1" id="Layer_1" xmlns="http://www.w3.org/2000/svg" xmlns:xlink="http://www.w3.org/1999/xlink" x="0px" y="0px"
	 viewBox="0 0 47.1 53.7" style="enable-background:new 0 0 47.1 53.7;" xml:space="preserve">
<style type="text/css">
	.st0{clip-path:url(#SVGID_2_);fill:#1D1D1B;}
</style>
<g>
	<defs>
		<rect id="SVGID_1_" width="47.1" height="53.7"/>
	</defs>
	<clipPath id="SVGID_2_">
		<use xlink:href="#SVGID_1_"  style="overflow:visible;"/>
	</clipPath>
	<path class="st0" d="M32.6,29.9c-0.6-1-2.8-1.3-4.5-1.3c-0.9,0-1.9,0.1-3,0.2c-0.8-0.5-1.5-0.9-2.2-1.4c-1.5-1.2-2.8-3.4-3.7-6.1
		c0.3-1.8,0.3-3.3,0.4-4.9v-0.8c0-0.1,0-0.1,0-0.2c0.1-0.1,0.1-0.1,0.1-0.2c0.2-0.8,0.1-1.4-0.2-1.7c-0.2-0.3-0.5-0.4-0.9-0.4h0
		h-0.5c-0.5,0-0.9,0.4-1.1,1c-0.5,1.7-0.2,4.6,0.6,7.4c-0.6,2.2-1.5,4.4-2.7,6.7c-1,2.1-1.9,3.7-2.7,5c0,0,0-0.1-0.1-0.1
		c-0.1-0.2-0.4-0.3-0.6-0.2c-3.2,1.7-4.6,3.6-4.8,4.8c-0.1,0.5,0,0.8,0.2,0.9c0.1,0.1,0.1,0.1,0.2,0.1l0.6,0.3
		c0.2,0.1,0.5,0.2,0.7,0.2c1.5,0,3.6-2.2,6.2-6.7c2.7-0.9,6.5-1.7,10-2.1c2.2,1.1,4.6,1.9,6.3,1.9c1.4,0,1.7-0.5,1.8-1v0
		c0,0,0.1-0.1,0.1-0.1C32.9,30.7,32.8,30.2,32.6,29.9 M8.1,38c0.4-0.9,1.6-2.6,3.5-4C10,36.5,8.9,37.6,8.1,38 M15.2,31.3
		c0.4-0.7,0.8-1.4,1.2-2.1c0.9-1.8,1.6-3.5,2.1-5c0.9,1.9,2,3.4,3.3,4.5c0.2,0.2,0.5,0.4,0.7,0.6C19.9,29.7,17.4,30.4,15.2,31.3
		 M31.3,31c-0.8,0-1.9-0.3-3.2-0.7c2.8,0,3.5,0.5,3.6,0.6c0,0,0.1,0.1,0.1,0.1C31.7,31,31.5,31,31.3,31"/>
	<path class="st0" d="M33.6,44.7l0,1.2c0.1,4.6-3.1,7.8-7.8,7.8c-5.5,0-7.9-4.4-7.9-9.4c0.6,0.4,2.7,2.1,3.4,2.1
		c0.4,0,0.7-0.2,0.9-0.6c1.4-3.6,3.5-4.3,7.2-4.4C30.3,43,31.9,44.2,33.6,44.7"/>
	<path class="st0" d="M47.1,27.2c0,0.9-0.3,1.7-0.7,2.4c-1.3,2.4-5.5,10.3-7.5,12.2c-1,0.9-2.2,1.5-3.5,1.5c-2.7,0-5-2.3-5-5.1
		c0-1.3,0.5-2.6,1.5-3.4l10.4-9.4c0.6-0.5,1.3-0.9,2.1-0.9C45.7,24.6,47.1,25.7,47.1,27.2"/>
	<path class="st0" d="M12,45.9l3.1-3.3H3.3V3.3H23v10.7c0,1.4,1.1,2.5,2.5,2.5h10.7v8.2l3.3-3.5v-7.2c0-1.4-0.8-3.3-1.7-4.2l-8-8
		C28.7,0.8,26.8,0,25.4,0h-23C1.1,0,0,1.1,0,2.5v41c0,1.4,1.1,2.5,2.5,2.5H12z M26.2,3.5c0.4,0.2,0.9,0.4,1,0.6l8,8
		c0.2,0.2,0.4,0.6,0.6,1h-9.6V3.5z"/>
</g>
</svg>
